<svg xmlns="http://www.w3.org/2000/svg" width="52" height="41.518" viewBox="0 0 52 41.518">
  <g>
    <path d="M26,41.518c-12.187,0-26,0-26-15.518a26,26,0,1,1,52,0c0,15.518-13.813,15.518-26,15.518M26,2.08A23.947,23.947,0,0,0,2.08,26c0,12.5,9.471,13.438,23.92,13.438S49.92,38.5,49.92,26A23.947,23.947,0,0,0,26,2.08" transform="translate(0 0)" fill="#262626"></path>
    <path d="M57.184,61.283H36.108a6.983,6.983,0,1,1,0-13.966H57.184a6.983,6.983,0,1,1,0,13.966M36.108,49.4a4.9,4.9,0,0,0,0,9.806H57.184a4.9,4.9,0,1,0,0-9.806Z" transform="translate(-20.645 -33.541)" fill="#262626"></path>
    <path d="M52.287,64.657a2.729,2.729,0,1,1-2.729-2.729,2.729,2.729,0,0,1,2.729,2.729" transform="translate(-33.194 -43.898)" fill="#262626"></path>
    <path d="M118.491,64.657a2.729,2.729,0,1,1-2.729-2.729,2.729,2.729,0,0,1,2.729,2.729" transform="translate(-80.124 -43.898)" fill="#262626"></path>
  </g>
</svg>