<svg xmlns="http://www.w3.org/2000/svg" width="40.159" height="40.158" viewBox="0 0 40.159 40.158"><path d="M10.19,45.763l-1.542.676a.829.829,0,1,0,.665,1.518l1.542-.676a.829.829,0,1,0-.665-1.518m4.111-1.8-1.542.676a.829.829,0,0,0,.666,1.518l1.542-.676A.829.829,0,0,0,14.3,43.96m15.1,2.708,1.544.346a.8.8,0,0,0,.182.02A.829.829,0,0,0,31.3,45.4l-1.544-.346a.829.829,0,0,0-.362,1.617m-4.118-.921,1.544.346a.84.84,0,0,0,.181.02.829.829,0,0,0,.181-1.637l-1.544-.346a.829.829,0,1,0-.362,1.617M18.79,42.431a.829.829,0,1,0-1.657,0v.287l-.263.115a.829.829,0,1,0,.665,1.518l.51-.224.544.122a.841.841,0,0,0,.182.02.829.829,0,0,0,.18-1.638L18.79,42.6ZM35.335,47.1V29.756c0-.012,0-.022,0-.034s0-.031,0-.045l0-.031c0-.015,0-.031-.007-.046s0-.019-.006-.028-.008-.033-.012-.049l-.008-.026c-.006-.018-.012-.035-.019-.053l-.005-.013,0-.008c-.008-.019-.018-.038-.028-.056s0-.011-.008-.016c-.012-.022-.025-.044-.039-.064l-.017-.023-.028-.037-.024-.027L35.1,29.17l-.026-.026-.031-.027-.026-.021-.037-.027-.023-.016c-.017-.011-.034-.02-.051-.03l-.013-.008c-.022-.012-.045-.022-.069-.032l-.014-.005c-.019-.007-.037-.014-.056-.02l-.031-.009-.033-.008-16.544-3.7a.829.829,0,0,0-.514.05L5.32,30.686l-.011.006a.791.791,0,0,0-.086.045l-.015.009a.911.911,0,0,0-.085.063l-.017.015c-.023.021-.045.043-.067.066l-.011.012a.851.851,0,0,0-.065.085L4.953,31a.785.785,0,0,0-.045.082L4.9,31.1a.772.772,0,0,0-.038.1l-.006.021c0,.017-.01.035-.014.053s0,.021,0,.032,0,.019-.005.029a.9.9,0,0,0-.008.109V48.794a.828.828,0,0,0,.648.809l16.544,3.7h.005c.023.005.046.008.07.012l.017,0a.8.8,0,0,0,.088.005.838.838,0,0,0,.252-.039l.005,0c.025-.008.049-.017.074-.028h0l12.308-5.4a.828.828,0,0,0,.5-.759M21.369,43.189a.829.829,0,0,0-.206,1.637l.206.046v6.589L6.481,48.13V32.465L17.133,34.7v.763a.829.829,0,0,0,1.657,0v-.416l2.579.54Zm.746-9.142-3.527-.739a.827.827,0,0,0-.626-.287.816.816,0,0,0-.355.081l-9.25-1.938,9.689-4.248,13.743,3.075ZM33.677,46.558l-10.651,4.67V45.18a.829.829,0,0,0,.043-1.626l-.043-.01V35.461L33.677,31Zm5.652,3.889a.828.828,0,0,0-.829.829v6.418H32.083a.829.829,0,1,0,0,1.658H39.33a.829.829,0,0,0,.829-.829V51.275a.829.829,0,0,0-.829-.829m0-31.254H32.083a.829.829,0,1,0,0,1.658H38.5v6.418a.829.829,0,0,0,1.658,0V20.022a.829.829,0,0,0-.829-.829M.829,28.1a.828.828,0,0,0,.829-.829V20.851h6.28a.829.829,0,0,0,0-1.658H.829A.829.829,0,0,0,0,20.022v7.247a.829.829,0,0,0,.829.829m7.108,29.6H1.658V51.275a.829.829,0,0,0-1.658,0v7.247a.829.829,0,0,0,.829.829H7.937a.829.829,0,0,0,0-1.658M17.961,28.73a.829.829,0,0,0-.829.829v1.609a.829.829,0,1,0,1.657,0V29.559a.829.829,0,0,0-.829-.829m0,11.849a.829.829,0,0,0,.829-.829V38.14a.829.829,0,1,0-1.657,0v1.61a.829.829,0,0,0,.829.829" transform="translate(0 -19.193)" fill="#333"></path></svg>