<svg xmlns="http://www.w3.org/2000/svg" width="40.746" height="40.789" viewBox="0 0 40.746 40.789">
  <g fill="#fff">
    <path d="M40.746 32.527V30.62a.082.082 0 0 0-.082-.082H10.21a.082.082 0 0 1-.082-.082V10.211a.082.082 0 0 1 .082-.082h20.22a.082.082 0 0 1 .082.082v18.262a.082.082 0 0 0 .082.082h1.845a.082.082 0 0 0 .082-.082V4.6c0-2.316-2.527-3.813-2.6-3.856C28.684-.078 28.112 0 28.046.007H12.6a4.79 4.79 0 0 0-3.543 2.146.082.082 0 0 0 .107.12 2.2 2.2 0 0 1 .941-.255H30.43a.082.082 0 0 1 .082.081V3.95a.082.082 0 0 1-.082.082H8.637A4.79 4.79 0 0 0 5.09 6.177a.08250606.08250606 0 0 0 .11.123 2.2 2.2 0 0 1 .941-.255H30.43a.082.082 0 0 1 .082.082v1.91a.082.082 0 0 1-.082.082H4.4A4.5 4.5 0 0 0 1.149 9.9a3.918 3.918 0 0 0-.4.519l-.023.035c-.115.167-.176.271-.176.271l.012-.025c-.625 1.032-.567 1.52-.555 1.585a.089.089 0 0 1 0 .016v15.43a4.79 4.79 0 0 0 2.144 3.547.082.082 0 0 0 .12-.107 2.2 2.2 0 0 1-.255-.941V10.215a.082.082 0 0 1 .082-.082H3.95a.082.082 0 0 1 .082.082v21.7a4.842 4.842 0 0 0 2.145 3.582.082.082 0 0 0 .12-.107 2.235 2.235 0 0 1-.256-.952V10.211a.082.082 0 0 1 .082-.082h1.913a.082.082 0 0 1 .082.082v25.721a4.491 4.491 0 0 0 1.77 3.249.081.081 0 0 1 .029.062v1.464a.082.082 0 0 0 .082.082h30.664a.082.082 0 0 0 .082-.082V38.8a.082.082 0 0 0-.082-.082H10.229a.082.082 0 0 1-.081-.07 1.788 1.788 0 0 1-.02-.216v-1.651a.082.082 0 0 1 .082-.082h30.453a.082.082 0 0 0 .082-.082V34.71a.082.082 0 0 0-.082-.082H10.21a.082.082 0 0 1-.082-.082v-1.854a.082.082 0 0 1 .082-.082h30.453a.082.082 0 0 0 .082-.082"/>
    <path d="M38.684 10.217v18.257a.082.082 0 0 0 .082.082h1.845a.082.082 0 0 0 .082-.082V12.716a4.79 4.79 0 0 0-2.144-3.547.082.082 0 0 0-.12.107 2.2 2.2 0 0 1 .255.941"/>
    <path d="M34.603 6.091v22.382a.082.082 0 0 0 .082.082h1.845a.082.082 0 0 0 .082-.082V8.591a4.79 4.79 0 0 0-2.144-3.547.082.082 0 0 0-.12.107 2.2 2.2 0 0 1 .255.941"/>
  </g>
</svg>