<svg xmlns="http://www.w3.org/2000/svg" width="39.4" height="47.929" viewBox="0 0 39.4 47.929"><path d="M214.077,26.377h-.844a5.194,5.194,0,0,0-3.749-4.681,13.242,13.242,0,0,0-5.352-6.524,16.7,16.7,0,0,0-16.461,0,13.236,13.236,0,0,0-5.353,6.524,5.194,5.194,0,0,0-3.75,4.681h-.842A1.525,1.525,0,0,0,176.2,27.9v4.808a1.526,1.526,0,0,0,1.524,1.524h.842a5.2,5.2,0,0,0,3.758,4.683,19.8,19.8,0,0,0,5.058,8.39l.09.082a13.344,13.344,0,0,1-.768,4.466,12.966,12.966,0,0,1-7.064,7.574.79.79,0,1,0,.67,1.43,14.63,14.63,0,0,0,7.907-8.547,15.316,15.316,0,0,0,.788-3.7,12,12,0,0,0,13.789,0,15.208,15.208,0,0,0,.788,3.7,14.621,14.621,0,0,0,7.907,8.547.789.789,0,1,0,.669-1.43,12.965,12.965,0,0,1-7.063-7.574,13.307,13.307,0,0,1-.768-4.466l.089-.082a19.8,19.8,0,0,0,5.059-8.39,5.194,5.194,0,0,0,3.757-4.683h.844a1.527,1.527,0,0,0,1.524-1.524V27.9a1.526,1.526,0,0,0-1.524-1.524m-35.518,6.277h-.78v-4.7h.78ZM195.9,14.582c5.522,0,9.656,2.444,11.774,6.913H184.127c2.117-4.469,6.251-6.913,11.774-6.913m0,34.632c-5.208,0-9.574-3.751-11.84-10.1h7.894a2.294,2.294,0,0,0,2.291-2.292.793.793,0,0,1,.792-.791h1.726a.793.793,0,0,1,.792.791,2.293,2.293,0,0,0,2.291,2.292h7.894c-2.266,6.348-6.632,10.1-11.84,10.1M211.664,33.93a3.609,3.609,0,0,1-3.6,3.605h-8.212a.713.713,0,0,1-.712-.713,2.374,2.374,0,0,0-2.371-2.371h-1.726a2.373,2.373,0,0,0-2.371,2.371.714.714,0,0,1-.712.713h-8.212a3.609,3.609,0,0,1-3.6-3.605V26.679a3.609,3.609,0,0,1,3.6-3.605h24.316a3.609,3.609,0,0,1,3.6,3.605Zm2.357-1.277h-.78v-4.7h.78Zm-10.4-7.788a.789.789,0,0,0-1.031.427L201.1,28.9,199.6,25.293a.789.789,0,0,0-1.458.6l2.186,5.29a.79.79,0,0,0,.73.488h.071a.789.789,0,0,0,.73-.488l2.186-5.29a.789.789,0,0,0-.428-1.031m4.9,4.133a2.247,2.247,0,0,0-1.125-4.192H205.62a.789.789,0,0,0-.789.789v5.34a.789.789,0,0,0,1.578,0V29.3h.422L208.2,31.37a.789.789,0,1,0,1.317-.87ZM207.4,27.723h-.99V26.384h.99a.669.669,0,1,1,0,1.338m-25.506,2.684a.79.79,0,0,0-.79.789v1.07a.79.79,0,0,0,1.579,0V31.2a.79.79,0,0,0-.789-.789M184.146,24a2.942,2.942,0,0,0-3.043,3.042v1.986a.79.79,0,0,0,1.579,0V27.038a1.375,1.375,0,0,1,1.464-1.464.789.789,0,0,0,0-1.578" transform="translate(-176.201 -13.003)" fill="#333"></path></svg>