<svg xmlns="http://www.w3.org/2000/svg" width="40.159" height="39.851" viewBox="0 0 40.159 39.851"><g transform="translate(-418.662 -9298.101)"><path d="M37.662,59.7H35.88a.772.772,0,0,1,0-1.545h1.782a.953.953,0,0,0,.952-.952V35.553H1.545V57.2a.953.953,0,0,0,.952.952H4.123a.772.772,0,0,1,0,1.545H2.5A2.5,2.5,0,0,1,0,57.2V34.781a.772.772,0,0,1,.772-.772H39.387a.772.772,0,0,1,.772.772V57.2a2.5,2.5,0,0,1-2.5,2.5" transform="translate(418.661 9271.501)" fill="#262626"></path><path d="M39.387,8.953H.772A.772.772,0,0,1,0,8.18V2.5A2.5,2.5,0,0,1,2.5,0H37.662a2.5,2.5,0,0,1,2.5,2.5V8.18a.772.772,0,0,1-.772.772M1.545,7.408h37.07V2.5a.953.953,0,0,0-.952-.952H2.5a.953.953,0,0,0-.952.952Z" transform="translate(418.662 9298.102)" fill="#262626"></path><path d="M122.907,16.952a1,1,0,1,1-1-1,1,1,0,0,1,1,1" transform="translate(324.099 9285.625)" fill="#262626"></path><path d="M139.772,16.952a1,1,0,1,1-1-1,1,1,0,0,1,1,1" transform="translate(310.908 9285.625)" fill="#262626"></path><path d="M156.635,16.952a1,1,0,1,1-1-1,1,1,0,0,1,1,1" transform="translate(297.719 9285.625)" fill="#262626"></path><path d="M89.394,81.721a.772.772,0,1,1,0-1.544c3.255,0,6-5.747,6-12.549s-2.75-12.55-6-12.55a.772.772,0,0,1,0-1.545,14.094,14.094,0,0,1,0,28.188m4.145-25.94c2.064,2.49,3.4,6.822,3.4,11.846s-1.34,9.356-3.4,11.846a12.551,12.551,0,0,0,0-23.692" transform="translate(349.347 9256.23)" fill="#262626"></path><path d="M41.567,81.721a14.094,14.094,0,1,1,0-28.188.772.772,0,1,1,0,1.545c-3.255,0-6.005,5.747-6.005,12.55s2.75,12.549,6.005,12.549a.772.772,0,1,1,0,1.545m-4.145-25.94a12.55,12.55,0,0,0,0,23.692c-2.064-2.489-3.4-6.821-3.4-11.846s1.34-9.357,3.4-11.846" transform="translate(397.174 9256.23)" fill="#262626"></path><path d="M65.062,81.721c-4.234,0-7.55-6.191-7.55-14.094s3.316-14.094,7.55-14.094a.772.772,0,0,1,.772.772V80.949a.772.772,0,0,1-.772.772M64.29,55.186c-2.906.82-5.233,6.184-5.233,12.441s2.327,11.621,5.233,12.441Z" transform="translate(373.679 9256.23)" fill="#262626"></path><path d="M89.393,81.721a.772.772,0,0,1-.772-.772V54.305a.772.772,0,0,1,.772-.772c4.233,0,7.549,6.191,7.549,14.094s-3.316,14.094-7.549,14.094m.773-26.535V80.068c2.906-.82,5.232-6.184,5.232-12.441s-2.326-11.621-5.232-12.441" transform="translate(349.348 9256.23)" fill="#262626"></path><path d="M54.925,116.227H28.291a.772.772,0,0,1,0-1.545H54.925a.772.772,0,0,1,0,1.545" transform="translate(397.138 9208.403)" fill="#262626"></path></g></svg>