<svg xmlns="http://www.w3.org/2000/svg" width="64.207" height="50.791" viewBox="0 0 64.207 50.791">
  <g>
    <path d="M92.209,71.159a9.4,9.4,0,1,1,9.4-9.4,9.407,9.407,0,0,1-9.4,9.4m0-17.025a7.629,7.629,0,1,0,7.628,7.629,7.638,7.638,0,0,0-7.628-7.629" transform="translate(-59.546 -37.654)" fill="#262626"></path>
    <path d="M195.025,152.75a5.477,5.477,0,1,1,5.477-5.477,5.482,5.482,0,0,1-5.477,5.477m0-9.185a3.708,3.708,0,1,0,3.708,3.708,3.712,3.712,0,0,0-3.708-3.708" transform="translate(-136.294 -101.959)" fill="#262626"></path>
    <path d="M38.165,143.75a5.477,5.477,0,1,1,5.477-5.477,5.482,5.482,0,0,1-5.477,5.477m0-9.185a3.708,3.708,0,1,0,3.708,3.708,3.713,3.713,0,0,0-3.708-3.708" transform="translate(-23.504 -95.487)" fill="#262626"></path>
    <path d="M195.025,63.766a5.476,5.476,0,1,1,5.477-5.476,5.482,5.482,0,0,1-5.477,5.476m0-9.184a3.708,3.708,0,1,0,3.708,3.708,3.712,3.712,0,0,0-3.708-3.708" transform="translate(-136.294 -37.976)" fill="#262626"></path>
    <path d="M5.477,56.98A5.476,5.476,0,1,1,10.952,51.5,5.482,5.482,0,0,1,5.477,56.98m0-9.184A3.708,3.708,0,1,0,9.184,51.5,3.712,3.712,0,0,0,5.477,47.8" transform="translate(0 -33.096)" fill="#262626"></path>
    <path d="M148.617,10.953a5.477,5.477,0,1,1,5.476-5.477,5.483,5.483,0,0,1-5.476,5.477m0-9.185a3.708,3.708,0,1,0,3.707,3.708,3.713,3.713,0,0,0-3.707-3.708" transform="translate(-102.925)" fill="#262626"></path>
    <path d="M131.346,39.4a.884.884,0,0,1-.723-1.391l5.524-7.9a.884.884,0,1,1,1.449,1.014l-5.524,7.9a.883.883,0,0,1-.726.377" transform="translate(-93.809 -21.38)" fill="#262626"></path>
    <path d="M144.228,75.173a.885.885,0,0,1-.126-1.76l13.034-1.9a.884.884,0,0,1,.254,1.75l-13.033,1.9a.787.787,0,0,1-.128.01" transform="translate(-103.071 -51.416)" fill="#262626"></path>
    <path d="M153.4,116.484a.873.873,0,0,1-.557-.2l-15.9-12.935a.884.884,0,0,1,1.116-1.372l15.9,12.935a.884.884,0,0,1-.559,1.57" transform="translate(-98.231 -73.185)" fill="#262626"></path>
    <path d="M61.257,115.482a.884.884,0,0,1-.637-1.5l8.914-9.248a.885.885,0,0,1,1.274,1.227l-8.913,9.248a.883.883,0,0,1-.637.27" transform="translate(-43.411 -75.117)" fill="#262626"></path>
    <path d="M47.574,70.5a.877.877,0,0,1-.183-.019L33.024,67.47a.885.885,0,0,1,.364-1.732L47.755,68.75a.885.885,0,0,1-.181,1.751" transform="translate(-23.24 -47.254)" fill="#262626"></path>
  </g>
</svg>