<svg xmlns="http://www.w3.org/2000/svg" width="39.401" height="32.472" viewBox="0 0 39.401 32.472">
  <g>
    <path d="M36.951,58.957H2.45A2.453,2.453,0,0,1,0,56.508v-22a.758.758,0,0,1,1.516,0v22a.936.936,0,0,0,.934.935h34.5a.936.936,0,0,0,.935-.935v-22a.758.758,0,0,1,1.515,0v22a2.453,2.453,0,0,1-2.45,2.45" transform="translate(0 -26.485)" fill="#262626"></path>
    <path d="M94.245,8.785a.755.755,0,0,1-.6-.3L88.119,1.217A.758.758,0,0,1,89.326.3l5.522,7.268a.758.758,0,0,1-.6,1.216" transform="translate(-69.022 -0.001)" fill="#262626"></path>
    <path d="M129.431,8.785a.755.755,0,0,1-.6-.3l-5.521-7.268A.758.758,0,0,1,124.512.3l5.522,7.268a.758.758,0,0,1-.6,1.216" transform="translate(-96.632 -0.001)" fill="#262626"></path>
    <path d="M19.7,8.786H.758A.757.757,0,0,1,0,8.027V2.451A2.453,2.453,0,0,1,2.45,0H19.7a.758.758,0,1,1,0,1.515H2.45a.936.936,0,0,0-.935.935V7.269H19.7a.758.758,0,1,1,0,1.515" transform="translate(0 -0.001)" fill="#262626"></path>
    <path d="M116.8,35.273h-2.434a.758.758,0,1,1,0-1.515H116.8a.758.758,0,1,1,0,1.515" transform="translate(-89.141 -26.488)" fill="#262626"></path>
    <path d="M124.231,8.786h-5.683a.758.758,0,1,1,0-1.515h4.925V2.451a.936.936,0,0,0-.935-.935h-12.7a.758.758,0,0,1,0-1.515h12.7a2.453,2.453,0,0,1,2.45,2.45V8.028a.758.758,0,0,1-.758.758" transform="translate(-85.588 -0.001)" fill="#262626"></path>
    <path d="M52.916,16.1a1.18,1.18,0,1,0,1.18-1.18,1.18,1.18,0,0,0-1.18,1.18" transform="translate(-41.521 -11.706)" fill="#262626"></path>
    <path d="M36.176,16.1a1.18,1.18,0,1,0,1.18-1.18,1.18,1.18,0,0,0-1.18,1.18" transform="translate(-28.386 -11.706)" fill="#262626"></path>
    <path d="M19.438,16.1a1.18,1.18,0,1,0,1.179-1.18,1.179,1.179,0,0,0-1.179,1.18" transform="translate(-15.252 -11.706)" fill="#262626"></path>
  </g>
</svg>