<svg xmlns="http://www.w3.org/2000/svg" width="52" height="45.803" viewBox="0 0 52 45.803">
  <path d="M239.45,45.23l.019-.023c.009-.01.016-.021.024-.032l.019-.027.019-.031c.006-.011.013-.022.018-.033a.266.266,0,0,0,.014-.029c.006-.012.012-.025.017-.038l.01-.028c0-.013.009-.027.013-.041s.005-.019.008-.029.006-.027.009-.041,0-.023,0-.034,0-.024,0-.037,0-.029,0-.043a.255.255,0,0,0,0-.03c0-.017,0-.034,0-.052V44.66c0-.017,0-.034-.008-.051l0-.025c0-.013-.006-.026-.01-.038s-.006-.025-.01-.037l-.009-.025c-.006-.016-.012-.031-.019-.047l0,0-1.271-2.825a.751.751,0,0,0-1.369.616l.338.752-10.381-5.994V22.958a.688.688,0,0,0-.006-.092V22.86a.778.778,0,0,0-.016-.081l-.006-.023c-.006-.022-.014-.044-.022-.065l-.009-.022a.778.778,0,0,0-.039-.079h0a.74.74,0,0,0-.049-.074l-.015-.019c-.014-.018-.03-.035-.046-.052l-.016-.016a.7.7,0,0,0-.063-.055l0,0a.679.679,0,0,0-.077-.052l-.005,0-12.139-7.009V3.076l.451.626a.751.751,0,1,0,1.219-.878L214.226.311l0,0-.032-.04-.016-.02-.028-.028L214.12.193,214.1.175,214.06.144l0,0-.016-.01L214,.1l-.027-.015L213.934.07,213.9.055l-.03-.012L213.826.03,213.8.022l-.044-.009-.028,0-.042,0-.031,0h-.074l-.033,0-.04,0-.03.005-.042.009-.029.008-.04.013-.031.012L213.3.07l-.038.019L213.236.1l-.042.027-.016.01,0,0-.039.031-.021.018-.027.026-.028.03-.016.019c-.011.013-.023.027-.033.041l0,0L211.2,2.825a.751.751,0,0,0,1.219.878l.451-.625V15.306l-12.139,7.009-.005,0a.739.739,0,0,0-.077.052l0,0a.816.816,0,0,0-.063.056l-.016.016a.668.668,0,0,0-.046.053l-.015.017a.844.844,0,0,0-.049.075.642.642,0,0,0-.04.08l-.008.021c-.009.022-.016.044-.023.066l-.006.022a.83.83,0,0,0-.017.082v.005a.7.7,0,0,0-.006.092V36.981l-10.341,5.971.328-.729a.751.751,0,0,0-1.369-.616L187.7,44.432l0,0c-.007.016-.013.032-.019.049l-.008.023c0,.013-.008.026-.011.038s-.007.024-.009.037l0,.027c0,.017-.006.033-.008.05v.023c0,.017,0,.034,0,.051v.03c0,.014,0,.028,0,.043s0,.024,0,.037a.344.344,0,0,0,.005.034c0,.014.006.027.009.041s0,.02.008.029.009.028.013.041l.01.028c.005.013.011.025.017.038a.269.269,0,0,0,.014.029c.006.011.012.022.018.032s.012.021.019.032l.018.027.024.033.019.022.029.032.021.021.031.028.027.021.03.023.036.023.026.015c.015.009.03.016.045.024l.016.008,0,0,.057.022.017.006c.016.005.032.009.048.013l.029.008.018,0,.06.009,3.081.311a.676.676,0,0,0,.077,0,.751.751,0,0,0,.074-1.5l-.74-.075,10.3-5.949,12.138,7.009.006,0a.679.679,0,0,0,.082.041l.005,0a.713.713,0,0,0,.079.027l.022.005a.637.637,0,0,0,.068.013l.023,0a.745.745,0,0,0,.089.006.761.761,0,0,0,.089-.006l.023,0a.64.64,0,0,0,.068-.013l.022-.005a.716.716,0,0,0,.079-.027l.005,0a.678.678,0,0,0,.082-.041l.006,0,12.139-7.009,10.307,5.951-.715.073a.751.751,0,0,0,.074,1.5.676.676,0,0,0,.077,0l3.081-.311.057-.009.021,0,.026-.007.051-.013.016-.006.059-.023,0,0,.015-.008.048-.024.024-.014c.013-.008.026-.016.037-.024l.029-.021.027-.022.031-.028.021-.021c.01-.01.02-.021.029-.032M213.617,29.323,202.6,22.965l11.012-6.358,11.012,6.358Zm-11.764-5.058,11.012,6.358V43.339l-11.012-6.358Zm12.514,19.074V30.623l11.012-6.358V36.981Z" transform="translate(-187.632)" fill="#333"></path>
</svg>